<svg xmlns="http://www.w3.org/2000/svg" width="434" height="236" viewBox="0 0 434 236" fill="none">
<rect width="434" height="236" rx="10" fill="url(#paint0_linear)"/>
<rect opacity="0.4" width="434" height="236" rx="10"/>
<mask id="mask0" mask-type="alpha" maskUnits="userSpaceOnUse" x="0" y="0" width="434" height="236">
<rect width="434" height="236" rx="10" fill="white"/>
</mask>
<g mask="url(#mask0)">
<path opacity="0.576901" fill-rule="evenodd" clip-rule="evenodd" d="M-10.633 231.864L458.119 -10.6683L457.144 273.894L-17.098 260.682L-10.633 231.864Z" fill="#01839C"/>
</g>
<g filter="url(#filter0_d)">
<g clip-path="url(#clip0)">
<rect x="51.5" y="40.5" width="37.8131" height="37.8043" rx="5.5" fill="url(#paint1_linear)" stroke="#016C81"/>
<g clip-path="url(#clip1)">
<rect x="52.2938" y="41.2935" width="36.2255" height="36.2174" rx="6" fill="url(#paint2_linear)"/>
<mask id="mask1" mask-type="alpha" maskUnits="userSpaceOnUse" x="52" y="41" width="37" height="37">
<rect x="52.2938" y="41.2935" width="36.2255" height="36.2174" rx="6" fill="white"/>
</mask>
<g mask="url(#mask1)">
<path fill-rule="evenodd" clip-rule="evenodd" d="M51.0568 77.8127L90.1543 37.6151L93.0958 86.3389L51.0568 77.8127Z" fill="#EECA29"/>
</g>
</g>
</g>
</g>
<rect x="71.7003" y="41.2935" width="1.29377" height="18.1087" fill="#016C81"/>
<rect x="61.6737" y="40.3234" width="0.646884" height="32.9836" fill="#016C81" stroke="#016C81" stroke-width="0.646884"/>
<rect x="62.6439" y="59.4022" width="25.8754" height="1.29348" fill="#016C81"/>
<rect x="61.3502" y="72.337" width="27.1691" height="1.29348" fill="#016C81"/>
<rect x="51" y="65.8696" width="10.3501" height="1.29348" fill="#016C81"/>
<path fill-rule="evenodd" clip-rule="evenodd" d="M408.923 21.3287H405.032C403.823 21.3287 402.917 21.6511 402.392 22.8356L394.905 39.4399L400.195 39.4399C400.195 39.4399 401.062 37.2073 401.26 36.7167C401.835 36.7167 406.981 36.7294 407.715 36.7294C407.86 37.3629 408.322 39.4399 408.322 39.4399H413L408.923 21.3287ZM402.708 33.0138C403.126 31.9721 404.714 27.9469 404.714 27.9469C404.69 27.9961 405.126 26.8989 405.385 26.2161L405.727 27.7802C405.727 27.7802 406.689 32.1023 406.892 33.0138H402.708ZM395.258 33.5108C395.221 37.2756 391.785 39.7066 386.486 39.7066C384.228 39.6828 382.05 39.2477 380.867 38.7396L381.575 34.6826L382.227 34.9748C383.886 35.6512 384.955 35.9227 386.974 35.9227C388.424 35.9227 389.975 35.3654 389.986 34.1491C389.993 33.3552 389.335 32.7915 387.373 31.9038C385.462 31.0353 382.93 29.584 382.962 26.9799C382.987 23.4564 386.499 21 391.48 21C393.431 21 394.993 21.3906 395.994 21.7622L395.31 25.689L394.853 25.4778C393.93 25.1126 392.734 24.7585 391.081 24.7839C389.113 24.7839 388.196 25.5905 388.196 26.3463C388.189 27.1895 389.265 27.7548 391.025 28.5916C393.936 29.8825 395.284 31.4513 395.258 33.5108ZM351 21.5209L351.063 21.1557H358.879C359.931 21.1922 360.778 21.5209 361.076 22.6244L362.773 30.632C361.101 26.4464 357.082 22.9595 351 21.5209ZM373.79 21.3287L365.854 39.416L360.519 39.4224L356.006 24.3123C359.253 26.3464 362.013 29.5713 362.986 31.8229L363.513 33.6902L368.45 21.3287H373.79ZM375.829 21.3096H380.868L377.715 39.4335H372.677L375.829 21.3096Z" fill="white"/>
<path fill-rule="evenodd" clip-rule="evenodd" d="M351 21.5728L351.067 21.1858H359.35C360.465 21.2245 361.363 21.5728 361.679 22.7424L363.476 31.2286C361.704 26.7928 357.446 23.0974 351 21.5728Z" fill="#EF9B1D"/>












<path opacity="0.2" d="M212.18 191.895H212.104C211.908 191.895 211.77 191.863 211.688 191.801C211.605 191.734 211.564 191.625 211.564 191.473C211.564 191.336 211.6 191.232 211.67 191.162C211.74 191.088 211.842 191.051 211.975 191.051H213.75C213.98 191.051 214.135 191.082 214.213 191.145C214.295 191.207 214.336 191.316 214.336 191.473C214.336 191.617 214.293 191.725 214.207 191.795C214.121 191.861 213.984 191.895 213.797 191.895H213.152L215.145 197.004L217.084 191.895H216.305C216.121 191.895 215.984 191.861 215.895 191.795C215.809 191.725 215.766 191.617 215.766 191.473C215.766 191.316 215.807 191.207 215.889 191.145C215.971 191.082 216.125 191.051 216.352 191.051H218.191C218.324 191.051 218.424 191.088 218.49 191.162C218.561 191.232 218.596 191.336 218.596 191.473C218.596 191.625 218.555 191.734 218.473 191.801C218.391 191.863 218.248 191.895 218.045 191.895H217.975L215.865 197.414C215.744 197.707 215.648 197.891 215.578 197.965C215.508 198.035 215.418 198.07 215.309 198.07H214.975C214.717 198.07 214.508 197.863 214.348 197.449L214.336 197.414L212.18 191.895ZM222.08 195H224.477L223.217 191.895L222.08 195ZM222.379 191.895H221.523C221.285 191.895 221.117 191.863 221.02 191.801C220.926 191.734 220.879 191.625 220.879 191.473C220.879 191.312 220.92 191.203 221.002 191.145C221.088 191.082 221.318 191.051 221.693 191.051H223.363C223.578 191.051 223.723 191.08 223.797 191.139C223.875 191.193 223.945 191.297 224.008 191.449L226.299 197.174H226.398C226.609 197.174 226.754 197.203 226.832 197.262C226.91 197.32 226.949 197.426 226.949 197.578C226.949 197.738 226.912 197.85 226.838 197.912C226.764 197.971 226.625 198 226.422 198H224.828C224.531 198 224.34 197.971 224.254 197.912C224.172 197.85 224.131 197.738 224.131 197.578C224.131 197.43 224.176 197.326 224.266 197.268C224.359 197.205 224.533 197.174 224.787 197.174H225.332L224.764 195.779H221.787L221.283 197.174H221.852C222.109 197.174 222.285 197.205 222.379 197.268C222.473 197.326 222.52 197.43 222.52 197.578C222.52 197.738 222.477 197.85 222.391 197.912C222.309 197.971 222.125 198 221.84 198H220.299C220.049 198 219.883 197.971 219.801 197.912C219.719 197.85 219.678 197.738 219.678 197.578C219.678 197.426 219.719 197.32 219.801 197.262C219.883 197.203 220.041 197.174 220.275 197.174H220.387L222.379 191.895ZM233.703 195.639C233.703 195.346 233.732 195.156 233.791 195.07C233.85 194.984 233.961 194.941 234.125 194.941C234.266 194.941 234.371 194.979 234.441 195.053C234.512 195.123 234.547 195.234 234.547 195.387V195.639V197.566C234.547 197.703 234.51 197.811 234.436 197.889C234.361 197.963 234.258 198 234.125 198H228.928H228.652C228.512 198 228.406 197.965 228.336 197.895C228.266 197.824 228.23 197.719 228.23 197.578C228.23 197.422 228.271 197.316 228.354 197.262C228.439 197.203 228.631 197.174 228.928 197.174H229.66V191.895H228.928C228.639 191.895 228.449 191.865 228.359 191.807C228.273 191.744 228.23 191.633 228.23 191.473C228.23 191.328 228.266 191.223 228.336 191.156C228.41 191.086 228.523 191.051 228.676 191.051H228.928H231.57H231.846C231.986 191.051 232.094 191.086 232.168 191.156C232.242 191.227 232.279 191.332 232.279 191.473C232.279 191.633 232.234 191.744 232.145 191.807C232.059 191.865 231.867 191.895 231.57 191.895H230.586V197.174H233.703V195.639ZM241.482 197.174C241.783 197.174 241.975 197.203 242.057 197.262C242.143 197.316 242.186 197.422 242.186 197.578C242.186 197.738 242.143 197.85 242.057 197.912C241.975 197.971 241.783 198 241.482 198H237.926H237.65C237.51 198 237.402 197.965 237.328 197.895C237.254 197.824 237.217 197.719 237.217 197.578C237.217 197.422 237.26 197.316 237.346 197.262C237.432 197.203 237.625 197.174 237.926 197.174H239.25V191.895H237.926C237.633 191.895 237.441 191.865 237.352 191.807C237.262 191.744 237.217 191.633 237.217 191.473C237.217 191.328 237.254 191.223 237.328 191.156C237.402 191.086 237.514 191.051 237.662 191.051H237.926H241.482H241.758C241.898 191.051 242.004 191.086 242.074 191.156C242.148 191.227 242.186 191.332 242.186 191.473C242.186 191.633 242.141 191.744 242.051 191.807C241.965 191.865 241.775 191.895 241.482 191.895H240.158V197.174H241.482ZM246.508 197.174C246.633 197.186 246.756 197.195 246.877 197.203C247.002 197.207 247.123 197.209 247.24 197.209C248.201 197.209 248.904 196.994 249.35 196.564C249.799 196.135 250.023 195.457 250.023 194.531C250.023 193.602 249.799 192.926 249.35 192.504C248.9 192.078 248.182 191.865 247.193 191.865C247.01 191.865 246.869 191.867 246.771 191.871C246.678 191.875 246.59 191.883 246.508 191.895V197.174ZM246.508 198H245.582H245.318C245.174 198 245.064 197.965 244.99 197.895C244.92 197.824 244.885 197.719 244.885 197.578C244.885 197.426 244.926 197.32 245.008 197.262C245.094 197.203 245.254 197.174 245.488 197.174H245.594V191.895H245.5C245.266 191.895 245.104 191.863 245.014 191.801C244.928 191.738 244.885 191.629 244.885 191.473C244.885 191.328 244.92 191.223 244.99 191.156C245.064 191.086 245.178 191.051 245.33 191.051H245.582H246.508H247.803C248.775 191.051 249.551 191.365 250.129 191.994C250.707 192.619 250.996 193.465 250.996 194.531C250.996 195.051 250.912 195.533 250.744 195.979C250.58 196.424 250.34 196.814 250.023 197.15C249.73 197.455 249.373 197.678 248.951 197.818C248.533 197.955 247.994 198.023 247.334 198.023C247.256 198.023 247.123 198.02 246.936 198.012C246.752 198.004 246.609 198 246.508 198ZM216.992 207.418C216.984 207.711 216.949 207.898 216.887 207.98C216.828 208.059 216.711 208.098 216.535 208.098C216.398 208.098 216.295 208.062 216.225 207.992C216.158 207.918 216.125 207.811 216.125 207.67C216.125 207.67 216.127 207.641 216.131 207.582C216.135 207.52 216.137 207.457 216.137 207.395L216.195 205.461C216.203 205.316 216.242 205.213 216.312 205.15C216.383 205.084 216.492 205.051 216.641 205.051H221.732C221.881 205.051 221.99 205.084 222.061 205.15C222.131 205.213 222.168 205.316 222.172 205.461L222.236 207.395C222.236 207.465 222.238 207.531 222.242 207.594C222.246 207.656 222.248 207.686 222.248 207.682C222.248 207.822 222.211 207.928 222.137 207.998C222.062 208.064 221.951 208.098 221.803 208.098C221.646 208.098 221.539 208.059 221.48 207.98C221.422 207.898 221.389 207.711 221.381 207.418L221.322 205.895H219.641V211.174H220.543H220.771C220.936 211.174 221.055 211.207 221.129 211.273C221.203 211.336 221.24 211.438 221.24 211.578C221.24 211.715 221.205 211.82 221.135 211.895C221.064 211.965 220.963 212 220.83 212H217.543C217.41 212 217.309 211.965 217.238 211.895C217.168 211.82 217.133 211.715 217.133 211.578C217.133 211.434 217.17 211.33 217.244 211.268C217.322 211.205 217.453 211.174 217.637 211.174H217.83H218.732V205.895H217.051L216.992 207.418ZM225.99 211.174H226.383C226.613 211.174 226.775 211.205 226.869 211.268C226.963 211.33 227.01 211.434 227.01 211.578C227.01 211.738 226.969 211.85 226.887 211.912C226.805 211.971 226.625 212 226.348 212H225.064H224.801C224.656 212 224.547 211.965 224.473 211.895C224.402 211.824 224.367 211.719 224.367 211.578C224.367 211.426 224.408 211.32 224.49 211.262C224.576 211.203 224.736 211.174 224.971 211.174H225.076V205.895H224.982C224.748 205.895 224.586 205.863 224.496 205.801C224.41 205.738 224.367 205.629 224.367 205.473C224.367 205.328 224.402 205.223 224.473 205.156C224.547 205.086 224.66 205.051 224.812 205.051H225.064H226.289C226.602 205.051 226.799 205.082 226.881 205.145C226.967 205.203 227.01 205.312 227.01 205.473C227.01 205.629 226.957 205.738 226.852 205.801C226.746 205.863 226.547 205.895 226.254 205.895H225.99V207.934H228.797V205.895H228.398C228.176 205.895 228.016 205.861 227.918 205.795C227.824 205.729 227.777 205.621 227.777 205.473C227.777 205.312 227.82 205.203 227.906 205.145C227.996 205.082 228.213 205.051 228.557 205.051H229.723H229.986C230.127 205.051 230.232 205.086 230.303 205.156C230.377 205.227 230.414 205.332 230.414 205.473C230.414 205.625 230.373 205.734 230.291 205.801C230.209 205.863 230.062 205.895 229.852 205.895H229.711V211.174H229.805C230.039 211.174 230.199 211.205 230.285 211.268C230.371 211.326 230.414 211.43 230.414 211.578C230.414 211.738 230.373 211.85 230.291 211.912C230.209 211.971 230.02 212 229.723 212H228.51C228.193 212 227.992 211.971 227.906 211.912C227.82 211.85 227.777 211.738 227.777 211.578C227.777 211.426 227.828 211.32 227.93 211.262C228.031 211.203 228.225 211.174 228.51 211.174H228.797V208.736H225.99V211.174ZM234.291 205.842V208.209H235.504C236.051 208.209 236.461 208.111 236.734 207.916C237.012 207.717 237.15 207.422 237.15 207.031C237.15 206.637 237.016 206.34 236.746 206.141C236.477 205.941 236.074 205.842 235.539 205.842H234.291ZM234.291 211.174H234.689C234.916 211.174 235.076 211.205 235.17 211.268C235.264 211.33 235.311 211.434 235.311 211.578C235.311 211.734 235.27 211.844 235.188 211.906C235.105 211.969 234.951 212 234.725 212H232.756C232.623 212 232.521 211.965 232.451 211.895C232.381 211.82 232.346 211.715 232.346 211.578C232.346 211.434 232.385 211.33 232.463 211.268C232.541 211.205 232.67 211.174 232.85 211.174H233.043H233.383V205.842H233.043C232.75 205.842 232.561 205.814 232.475 205.76C232.389 205.705 232.346 205.602 232.346 205.449C232.346 205.316 232.379 205.217 232.445 205.15C232.516 205.084 232.619 205.051 232.756 205.051H235.229C235.826 205.051 236.271 205.08 236.564 205.139C236.861 205.193 237.111 205.289 237.314 205.426C237.576 205.602 237.781 205.834 237.93 206.123C238.082 206.412 238.158 206.723 238.158 207.055C238.158 207.504 238.02 207.891 237.742 208.215C237.469 208.535 237.086 208.758 236.594 208.883C236.695 208.941 236.785 209.01 236.863 209.088C236.945 209.166 237.023 209.26 237.098 209.369L238.275 211.174H238.469C238.688 211.174 238.838 211.205 238.92 211.268C239.002 211.326 239.043 211.43 239.043 211.578C239.043 211.715 239.008 211.82 238.938 211.895C238.871 211.965 238.771 212 238.639 212H237.977C237.785 212 237.598 211.859 237.414 211.578C237.391 211.555 237.373 211.535 237.361 211.52L236.236 209.814C236.006 209.467 235.814 209.242 235.662 209.141C235.514 209.039 235.316 208.988 235.07 208.988H234.291V211.174ZM241.273 205.895H241.18C240.945 205.895 240.783 205.863 240.693 205.801C240.607 205.738 240.564 205.629 240.564 205.473C240.564 205.328 240.602 205.223 240.676 205.156C240.75 205.086 240.861 205.051 241.01 205.051H241.273H242.475C242.791 205.051 242.992 205.082 243.078 205.145C243.164 205.203 243.207 205.312 243.207 205.473C243.207 205.629 243.156 205.738 243.055 205.801C242.953 205.863 242.76 205.895 242.475 205.895H242.223V209.105C242.223 209.539 242.242 209.855 242.281 210.055C242.324 210.25 242.393 210.43 242.486 210.594C242.623 210.832 242.812 211.018 243.055 211.15C243.301 211.283 243.572 211.35 243.869 211.35C244.428 211.35 244.834 211.182 245.088 210.846C245.346 210.51 245.475 209.967 245.475 209.217V205.895H245.164C244.859 205.895 244.654 205.865 244.549 205.807C244.447 205.744 244.396 205.633 244.396 205.473C244.396 205.312 244.438 205.203 244.52 205.145C244.602 205.082 244.771 205.051 245.029 205.051H246.324H246.605C246.746 205.051 246.852 205.086 246.922 205.156C246.996 205.227 247.033 205.332 247.033 205.473C247.033 205.629 246.99 205.738 246.904 205.801C246.818 205.863 246.662 205.895 246.436 205.895H246.354V209.346C246.354 210.295 246.141 211.008 245.715 211.484C245.293 211.957 244.656 212.193 243.805 212.193C243.035 212.193 242.42 211.957 241.959 211.484C241.502 211.008 241.273 210.367 241.273 209.562V205.895Z" fill="#D8D8D8"/>
<defs>
<filter id="filter0_d" x="50" y="39" width="40.8131" height="40.8043" filterUnits="userSpaceOnUse" color-interpolation-filters="sRGB">
<feFlood flood-opacity="0" result="BackgroundImageFix"/>
<feColorMatrix in="SourceAlpha" type="matrix" values="0 0 0 0 0 0 0 0 0 0 0 0 0 0 0 0 0 0 127 0"/>
<feOffset/>
<feGaussianBlur stdDeviation="0.5"/>
<feColorMatrix type="matrix" values="0 0 0 0 0 0 0 0 0 0 0 0 0 0 0 0 0 0 0.5 0"/>
<feBlend mode="normal" in2="BackgroundImageFix" result="effect1_dropShadow"/>
<feBlend mode="normal" in="SourceGraphic" in2="effect1_dropShadow" result="shape"/>
</filter>
<filter id="filter1_di" x="56.4785" y="104.363" width="49.0332" height="14.959" filterUnits="userSpaceOnUse" color-interpolation-filters="sRGB">
<feFlood flood-opacity="0" result="BackgroundImageFix"/>
<feColorMatrix in="SourceAlpha" type="matrix" values="0 0 0 0 0 0 0 0 0 0 0 0 0 0 0 0 0 0 127 0"/>
<feOffset dy="1"/>
<feGaussianBlur stdDeviation="0.5"/>
<feColorMatrix type="matrix" values="0 0 0 0 0 0 0 0 0 0 0 0 0 0 0 0 0 0 0.323851 0"/>
<feBlend mode="normal" in2="BackgroundImageFix" result="effect1_dropShadow"/>
<feBlend mode="normal" in="SourceGraphic" in2="effect1_dropShadow" result="shape"/>
<feColorMatrix in="SourceAlpha" type="matrix" values="0 0 0 0 0 0 0 0 0 0 0 0 0 0 0 0 0 0 127 0" result="hardAlpha"/>
<feOffset dy="1"/>
<feGaussianBlur stdDeviation="0.5"/>
<feComposite in2="hardAlpha" operator="arithmetic" k2="-1" k3="1"/>
<feColorMatrix type="matrix" values="0 0 0 0 0.493983 0 0 0 0 0.705482 0 0 0 0 1 0 0 0 0.386266 0"/>
<feBlend mode="normal" in2="shape" result="effect2_innerShadow"/>
</filter>
<filter id="filter2_di" x="146.479" y="104.363" width="49.0332" height="14.959" filterUnits="userSpaceOnUse" color-interpolation-filters="sRGB">
<feFlood flood-opacity="0" result="BackgroundImageFix"/>
<feColorMatrix in="SourceAlpha" type="matrix" values="0 0 0 0 0 0 0 0 0 0 0 0 0 0 0 0 0 0 127 0"/>
<feOffset dy="1"/>
<feGaussianBlur stdDeviation="0.5"/>
<feColorMatrix type="matrix" values="0 0 0 0 0 0 0 0 0 0 0 0 0 0 0 0 0 0 0.323851 0"/>
<feBlend mode="normal" in2="BackgroundImageFix" result="effect1_dropShadow"/>
<feBlend mode="normal" in="SourceGraphic" in2="effect1_dropShadow" result="shape"/>
<feColorMatrix in="SourceAlpha" type="matrix" values="0 0 0 0 0 0 0 0 0 0 0 0 0 0 0 0 0 0 127 0" result="hardAlpha"/>
<feOffset dy="1"/>
<feGaussianBlur stdDeviation="0.5"/>
<feComposite in2="hardAlpha" operator="arithmetic" k2="-1" k3="1"/>
<feColorMatrix type="matrix" values="0 0 0 0 0.493983 0 0 0 0 0.705482 0 0 0 0 1 0 0 0 0.386266 0"/>
<feBlend mode="normal" in2="shape" result="effect2_innerShadow"/>
</filter>
<filter id="filter3_di" x="236.479" y="104.363" width="49.0332" height="14.959" filterUnits="userSpaceOnUse" color-interpolation-filters="sRGB">
<feFlood flood-opacity="0" result="BackgroundImageFix"/>
<feColorMatrix in="SourceAlpha" type="matrix" values="0 0 0 0 0 0 0 0 0 0 0 0 0 0 0 0 0 0 127 0"/>
<feOffset dy="1"/>
<feGaussianBlur stdDeviation="0.5"/>
<feColorMatrix type="matrix" values="0 0 0 0 0 0 0 0 0 0 0 0 0 0 0 0 0 0 0.323851 0"/>
<feBlend mode="normal" in2="BackgroundImageFix" result="effect1_dropShadow"/>
<feBlend mode="normal" in="SourceGraphic" in2="effect1_dropShadow" result="shape"/>
<feColorMatrix in="SourceAlpha" type="matrix" values="0 0 0 0 0 0 0 0 0 0 0 0 0 0 0 0 0 0 127 0" result="hardAlpha"/>
<feOffset dy="1"/>
<feGaussianBlur stdDeviation="0.5"/>
<feComposite in2="hardAlpha" operator="arithmetic" k2="-1" k3="1"/>
<feColorMatrix type="matrix" values="0 0 0 0 0.493983 0 0 0 0 0.705482 0 0 0 0 1 0 0 0 0.386266 0"/>
<feBlend mode="normal" in2="shape" result="effect2_innerShadow"/>
</filter>
<filter id="filter4_di" x="328.479" y="104.363" width="49.0332" height="14.959" filterUnits="userSpaceOnUse" color-interpolation-filters="sRGB">
<feFlood flood-opacity="0" result="BackgroundImageFix"/>
<feColorMatrix in="SourceAlpha" type="matrix" values="0 0 0 0 0 0 0 0 0 0 0 0 0 0 0 0 0 0 127 0"/>
<feOffset dy="1"/>
<feGaussianBlur stdDeviation="0.5"/>
<feColorMatrix type="matrix" values="0 0 0 0 0 0 0 0 0 0 0 0 0 0 0 0 0 0 0.323851 0"/>
<feBlend mode="normal" in2="BackgroundImageFix" result="effect1_dropShadow"/>
<feBlend mode="normal" in="SourceGraphic" in2="effect1_dropShadow" result="shape"/>
<feColorMatrix in="SourceAlpha" type="matrix" values="0 0 0 0 0 0 0 0 0 0 0 0 0 0 0 0 0 0 127 0" result="hardAlpha"/>
<feOffset dy="1"/>
<feGaussianBlur stdDeviation="0.5"/>
<feComposite in2="hardAlpha" operator="arithmetic" k2="-1" k3="1"/>
<feColorMatrix type="matrix" values="0 0 0 0 0.493983 0 0 0 0 0.705482 0 0 0 0 1 0 0 0 0.386266 0"/>
<feBlend mode="normal" in2="shape" result="effect2_innerShadow"/>
</filter>
<filter id="filter5_di" x="200.49" y="160.363" width="23.0098" height="14.959" filterUnits="userSpaceOnUse" color-interpolation-filters="sRGB">
<feFlood flood-opacity="0" result="BackgroundImageFix"/>
<feColorMatrix in="SourceAlpha" type="matrix" values="0 0 0 0 0 0 0 0 0 0 0 0 0 0 0 0 0 0 127 0"/>
<feOffset dy="1"/>
<feGaussianBlur stdDeviation="0.5"/>
<feColorMatrix type="matrix" values="0 0 0 0 0 0 0 0 0 0 0 0 0 0 0 0 0 0 0.323851 0"/>
<feBlend mode="normal" in2="BackgroundImageFix" result="effect1_dropShadow"/>
<feBlend mode="normal" in="SourceGraphic" in2="effect1_dropShadow" result="shape"/>
<feColorMatrix in="SourceAlpha" type="matrix" values="0 0 0 0 0 0 0 0 0 0 0 0 0 0 0 0 0 0 127 0" result="hardAlpha"/>
<feOffset dy="1"/>
<feGaussianBlur stdDeviation="0.5"/>
<feComposite in2="hardAlpha" operator="arithmetic" k2="-1" k3="1"/>
<feColorMatrix type="matrix" values="0 0 0 0 0.493983 0 0 0 0 0.705482 0 0 0 0 1 0 0 0 0.386266 0"/>
<feBlend mode="normal" in2="shape" result="effect2_innerShadow"/>
</filter>
<filter id="filter6_di" x="239.49" y="160.363" width="23.0098" height="14.959" filterUnits="userSpaceOnUse" color-interpolation-filters="sRGB">
<feFlood flood-opacity="0" result="BackgroundImageFix"/>
<feColorMatrix in="SourceAlpha" type="matrix" values="0 0 0 0 0 0 0 0 0 0 0 0 0 0 0 0 0 0 127 0"/>
<feOffset dy="1"/>
<feGaussianBlur stdDeviation="0.5"/>
<feColorMatrix type="matrix" values="0 0 0 0 0 0 0 0 0 0 0 0 0 0 0 0 0 0 0.323851 0"/>
<feBlend mode="normal" in2="BackgroundImageFix" result="effect1_dropShadow"/>
<feBlend mode="normal" in="SourceGraphic" in2="effect1_dropShadow" result="shape"/>
<feColorMatrix in="SourceAlpha" type="matrix" values="0 0 0 0 0 0 0 0 0 0 0 0 0 0 0 0 0 0 127 0" result="hardAlpha"/>
<feOffset dy="1"/>
<feGaussianBlur stdDeviation="0.5"/>
<feComposite in2="hardAlpha" operator="arithmetic" k2="-1" k3="1"/>
<feColorMatrix type="matrix" values="0 0 0 0 0.493983 0 0 0 0 0.705482 0 0 0 0 1 0 0 0 0.386266 0"/>
<feBlend mode="normal" in2="shape" result="effect2_innerShadow"/>
</filter>
<linearGradient id="paint0_linear" x1="3.44685" y1="0" x2="3.44685" y2="232.251" gradientUnits="userSpaceOnUse">
<stop stop-color="#0A8196"/>
<stop offset="1" stop-color="#0A95AD"/>
</linearGradient>
<linearGradient id="paint1_linear" x1="51" y1="40" x2="51" y2="78.8043" gradientUnits="userSpaceOnUse">
<stop stop-color="#DCA717"/>
<stop offset="1" stop-color="#EFCF0D"/>
</linearGradient>
<linearGradient id="paint2_linear" x1="52.2938" y1="41.2935" x2="52.2938" y2="77.5109" gradientUnits="userSpaceOnUse">
<stop stop-color="#E9E131"/>
<stop offset="1" stop-color="#DEC111"/>
</linearGradient>
<clipPath id="clip0">
<rect x="51" y="40" width="38.8131" height="38.8043" fill="white"/>
</clipPath>
<clipPath id="clip1">
<rect x="52.2938" y="41.2935" width="36.2255" height="36.2174" fill="white"/>
</clipPath>
</defs>
</svg>